{
    "asset" : {
        "generator" : "Khronos glTF Blender I/O v1.5.17",
        "version" : "2.0"
    },
    "scene" : 0,
    "scenes" : [
        {
            "name" : "Scene",
            "nodes" : [
                0
            ]
        }
    ],
    "nodes" : [
        {
            "mesh" : 0,
            "name" : "Torus",
            "rotation" : [
                0.8410592675209045,
                0.006649903021752834,
                0.38934749364852905,
                0.3754778802394867
            ],
            "scale" : [
                0.04963315278291702,
                0.04963315278291702,
                0.04963315278291702
            ],
            "translation" : [
                -0.3421269655227661,
                0.2676681876182556,
                -0.0832754597067833
            ]
        }
    ],
    "materials" : [
        {
            "doubleSided" : true,
            "name" : "Material.008",
            "pbrMetallicRoughness" : {
                "baseColorFactor" : [
                    0.1282392293214798,
                    0.1282392293214798,
                    0.1282392293214798,
                    1
                ],
                "metallicFactor" : 0.692307710647583,
                "roughnessFactor" : 0.5
            }
        },
        {
            "doubleSided" : true,
            "name" : "Material.005",
            "pbrMetallicRoughness" : {
                "baseColorFactor" : [
                    0.03086273930966854,
                    0.13286331295967102,
                    0.0035769937094300985,
                    1
                ],
                "metallicFactor" : 0,
                "roughnessFactor" : 0.5
            }
        },
        {
            "doubleSided" : true,
            "name" : "Material.001",
            "pbrMetallicRoughness" : {
                "baseColorFactor" : [
                    0.01768224686384201,
                    0.3343231976032257,
                    0.024634189903736115,
                    1
                ],
                "metallicFactor" : 0,
                "roughnessFactor" : 0.5
            }
        },
        {
            "doubleSided" : true,
            "name" : "Material.002",
            "pbrMetallicRoughness" : {
                "baseColorFactor" : [
                    0.01768224686384201,
                    0.3343231976032257,
                    0.024634189903736115,
                    1
                ],
                "metallicFactor" : 0,
                "roughnessFactor" : 0.5
            }
        },
        {
            "doubleSided" : true,
            "name" : "Material.004",
            "pbrMetallicRoughness" : {
                "baseColorFactor" : [
                    0.04150219261646271,
                    0.23301498591899872,
                    0.06379164755344391,
                    1
                ],
                "metallicFactor" : 0,
                "roughnessFactor" : 0.5
            }
        },
        {
            "doubleSided" : true,
            "name" : "Material.006",
            "pbrMetallicRoughness" : {
                "baseColorFactor" : [
                    0.3343231976032257,
                    0.3343231976032257,
                    0.3343231976032257,
                    1
                ],
                "metallicFactor" : 0,
                "roughnessFactor" : 0.5
            }
        },
        {
            "doubleSided" : true,
            "name" : "Material.007",
            "pbrMetallicRoughness" : {
                "baseColorFactor" : [
                    0.09850388020277023,
                    0.09850388020277023,
                    0.09850388020277023,
                    1
                ],
                "metallicFactor" : 0,
                "roughnessFactor" : 0.5
            }
        }
    ],
    "meshes" : [
        {
            "name" : "Torus",
            "primitives" : [
                {
                    "attributes" : {
                        "POSITION" : 0,
                        "NORMAL" : 1,
                        "TEXCOORD_0" : 2
                    },
                    "indices" : 3,
                    "material" : 0
                },
                {
                    "attributes" : {
                        "POSITION" : 4,
                        "NORMAL" : 5,
                        "TEXCOORD_0" : 6
                    },
                    "indices" : 7,
                    "material" : 1
                },
                {
                    "attributes" : {
                        "POSITION" : 8,
                        "NORMAL" : 9,
                        "TEXCOORD_0" : 10
                    },
                    "indices" : 11,
                    "material" : 2
                },
                {
                    "attributes" : {
                        "POSITION" : 12,
                        "NORMAL" : 13,
                        "TEXCOORD_0" : 14
                    },
                    "indices" : 15,
                    "material" : 3
                },
                {
                    "attributes" : {
                        "POSITION" : 16,
                        "NORMAL" : 17,
                        "TEXCOORD_0" : 18
                    },
                    "indices" : 19,
                    "material" : 4
                },
                {
                    "attributes" : {
                        "POSITION" : 20,
                        "NORMAL" : 21,
                        "TEXCOORD_0" : 22
                    },
                    "indices" : 23,
                    "material" : 5
                },
                {
                    "attributes" : {
                        "POSITION" : 24,
                        "NORMAL" : 25,
                        "TEXCOORD_0" : 26
                    },
                    "indices" : 27,
                    "material" : 6
                }
            ]
        }
    ],
    "accessors" : [
        {
            "bufferView" : 0,
            "componentType" : 5126,
            "count" : 1188,
            "max" : [
                5.048184871673584,
                0.8385880589485168,
                10.155434608459473
            ],
            "min" : [
                -4.484607696533203,
                -0.8321231603622437,
                -1.25
            ],
            "type" : "VEC3"
        },
        {
            "bufferView" : 1,
            "componentType" : 5126,
            "count" : 1188,
            "type" : "VEC3"
        },
        {
            "bufferView" : 2,
            "componentType" : 5126,
            "count" : 1188,
            "type" : "VEC2"
        },
        {
            "bufferView" : 3,
            "componentType" : 5123,
            "count" : 5820,
            "type" : "SCALAR"
        },
        {
            "bufferView" : 4,
            "componentType" : 5126,
            "count" : 56,
            "max" : [
                6.585657119750977,
                3.9838199615478516,
                6.3895769119262695
            ],
            "min" : [
                2.488776206970215,
                -7.456357002258301,
                -3.1059930324554443
            ],
            "type" : "VEC3"
        },
        {
            "bufferView" : 5,
            "componentType" : 5126,
            "count" : 56,
            "type" : "VEC3"
        },
        {
            "bufferView" : 6,
            "componentType" : 5126,
            "count" : 56,
            "type" : "VEC2"
        },
        {
            "bufferView" : 7,
            "componentType" : 5123,
            "count" : 84,
            "type" : "SCALAR"
        },
        {
            "bufferView" : 8,
            "componentType" : 5126,
            "count" : 40,
            "max" : [
                8.766416549682617,
                3.1315340995788574,
                7.346583366394043
            ],
            "min" : [
                4.102909088134766,
                -6.203929901123047,
                -1.0173332691192627
            ],
            "type" : "VEC3"
        },
        {
            "bufferView" : 9,
            "componentType" : 5126,
            "count" : 40,
            "type" : "VEC3"
        },
        {
            "bufferView" : 10,
            "componentType" : 5126,
            "count" : 40,
            "type" : "VEC2"
        },
        {
            "bufferView" : 11,
            "componentType" : 5123,
            "count" : 60,
            "type" : "SCALAR"
        },
        {
            "bufferView" : 12,
            "componentType" : 5126,
            "count" : 40,
            "max" : [
                6.707802772521973,
                3.4526419639587402,
                6.807689666748047
            ],
            "min" : [
                3.4585134983062744,
                -4.091081619262695,
                0.6334165334701538
            ],
            "type" : "VEC3"
        },
        {
            "bufferView" : 13,
            "componentType" : 5126,
            "count" : 40,
            "type" : "VEC3"
        },
        {
            "bufferView" : 14,
            "componentType" : 5126,
            "count" : 40,
            "type" : "VEC2"
        },
        {
            "bufferView" : 15,
            "componentType" : 5123,
            "count" : 60,
            "type" : "SCALAR"
        },
        {
            "bufferView" : 16,
            "componentType" : 5126,
            "count" : 40,
            "max" : [
                9.967899322509766,
                4.319732189178467,
                6.530353546142578
            ],
            "min" : [
                5.373775959014893,
                -5.237473011016846,
                -1.5182359218597412
            ],
            "type" : "VEC3"
        },
        {
            "bufferView" : 17,
            "componentType" : 5126,
            "count" : 40,
            "type" : "VEC3"
        },
        {
            "bufferView" : 18,
            "componentType" : 5126,
            "count" : 40,
            "type" : "VEC2"
        },
        {
            "bufferView" : 19,
            "componentType" : 5123,
            "count" : 60,
            "type" : "SCALAR"
        },
        {
            "bufferView" : 20,
            "componentType" : 5126,
            "count" : 96,
            "max" : [
                4.8722453117370605,
                6.171893119812012,
                7.23253059387207
            ],
            "min" : [
                -2.314943790435791,
                -1.1529074907302856,
                -0.8478872776031494
            ],
            "type" : "VEC3"
        },
        {
            "bufferView" : 21,
            "componentType" : 5126,
            "count" : 96,
            "type" : "VEC3"
        },
        {
            "bufferView" : 22,
            "componentType" : 5126,
            "count" : 96,
            "type" : "VEC2"
        },
        {
            "bufferView" : 23,
            "componentType" : 5123,
            "count" : 144,
            "type" : "SCALAR"
        },
        {
            "bufferView" : 24,
            "componentType" : 5126,
            "count" : 96,
            "max" : [
                9.83879280090332,
                4.373963356018066,
                11.825249671936035
            ],
            "min" : [
                3.391861915588379,
                -1.7229230403900146,
                4.929109573364258
            ],
            "type" : "VEC3"
        },
        {
            "bufferView" : 25,
            "componentType" : 5126,
            "count" : 96,
            "type" : "VEC3"
        },
        {
            "bufferView" : 26,
            "componentType" : 5126,
            "count" : 96,
            "type" : "VEC2"
        },
        {
            "bufferView" : 27,
            "componentType" : 5123,
            "count" : 144,
            "type" : "SCALAR"
        }
    ],
    "bufferViews" : [
        {
            "buffer" : 0,
            "byteLength" : 14256,
            "byteOffset" : 0
        },
        {
            "buffer" : 0,
            "byteLength" : 14256,
            "byteOffset" : 14256
        },
        {
            "buffer" : 0,
            "byteLength" : 9504,
            "byteOffset" : 28512
        },
        {
            "buffer" : 0,
            "byteLength" : 11640,
            "byteOffset" : 38016
        },
        {
            "buffer" : 0,
            "byteLength" : 672,
            "byteOffset" : 49656
        },
        {
            "buffer" : 0,
            "byteLength" : 672,
            "byteOffset" : 50328
        },
        {
            "buffer" : 0,
            "byteLength" : 448,
            "byteOffset" : 51000
        },
        {
            "buffer" : 0,
            "byteLength" : 168,
            "byteOffset" : 51448
        },
        {
            "buffer" : 0,
            "byteLength" : 480,
            "byteOffset" : 51616
        },
        {
            "buffer" : 0,
            "byteLength" : 480,
            "byteOffset" : 52096
        },
        {
            "buffer" : 0,
            "byteLength" : 320,
            "byteOffset" : 52576
        },
        {
            "buffer" : 0,
            "byteLength" : 120,
            "byteOffset" : 52896
        },
        {
            "buffer" : 0,
            "byteLength" : 480,
            "byteOffset" : 53016
        },
        {
            "buffer" : 0,
            "byteLength" : 480,
            "byteOffset" : 53496
        },
        {
            "buffer" : 0,
            "byteLength" : 320,
            "byteOffset" : 53976
        },
        {
            "buffer" : 0,
            "byteLength" : 120,
            "byteOffset" : 54296
        },
        {
            "buffer" : 0,
            "byteLength" : 480,
            "byteOffset" : 54416
        },
        {
            "buffer" : 0,
            "byteLength" : 480,
            "byteOffset" : 54896
        },
        {
            "buffer" : 0,
            "byteLength" : 320,
            "byteOffset" : 55376
        },
        {
            "buffer" : 0,
            "byteLength" : 120,
            "byteOffset" : 55696
        },
        {
            "buffer" : 0,
            "byteLength" : 1152,
            "byteOffset" : 55816
        },
        {
            "buffer" : 0,
            "byteLength" : 1152,
            "byteOffset" : 56968
        },
        {
            "buffer" : 0,
            "byteLength" : 768,
            "byteOffset" : 58120
        },
        {
            "buffer" : 0,
            "byteLength" : 288,
            "byteOffset" : 58888
        },
        {
            "buffer" : 0,
            "byteLength" : 1152,
            "byteOffset" : 59176
        },
        {
            "buffer" : 0,
            "byteLength" : 1152,
            "byteOffset" : 60328
        },
        {
            "buffer" : 0,
            "byteLength" : 768,
            "byteOffset" : 61480
        },
        {
            "buffer" : 0,
            "byteLength" : 288,
            "byteOffset" : 62248
        }
    ],
    "buffers" : [
        {
            "byteLength" : 62536,
            "uri" : "data:application/octet-stream;base64,"
        }
    ]
}
