{
    "asset" : {
        "generator" : "Khronos glTF Blender I/O v1.5.17",
        "version" : "2.0"
    },
    "scene" : 0,
    "scenes" : [
        {
            "name" : "Scene",
            "nodes" : [
                0,
                1
            ]
        }
    ],
    "nodes" : [
        {
            "mesh" : 0,
            "name" : "Plane",
            "translation" : [
                -0.2598234713077545,
                1.9164795875549316,
                0
            ]
        },
        {
            "name" : "Empty",
            "translation" : [
                0.003621324896812439,
                1.920979619026184,
                0.0014999955892562866
            ]
        }
    ],
    "materials" : [
        {
            "doubleSided" : true,
            "name" : "Material.001",
            "pbrMetallicRoughness" : {
                "baseColorFactor" : [
                    0.016252893954515457,
                    0.14727836847305298,
                    0.002546940930187702,
                    1
                ],
                "metallicFactor" : 0,
                "roughnessFactor" : 0.5
            }
        },
        {
            "doubleSided" : true,
            "name" : "Material.003",
            "pbrMetallicRoughness" : {
                "baseColorFactor" : [
                    0.057802487164735794,
                    0.0072549753822386265,
                    0.005619154777377844,
                    1
                ],
                "metallicFactor" : 0,
                "roughnessFactor" : 0.5
            }
        },
        {
            "doubleSided" : true,
            "name" : "Material.002",
            "pbrMetallicRoughness" : {
                "baseColorFactor" : [
                    0.17335522174835205,
                    0.17335522174835205,
                    0.17335522174835205,
                    1
                ],
                "metallicFactor" : 0.31228071451187134,
                "roughnessFactor" : 0.5
            }
        }
    ],
    "meshes" : [
        {
            "name" : "Plane",
            "primitives" : [
                {
                    "attributes" : {
                        "POSITION" : 0,
                        "NORMAL" : 1,
                        "TEXCOORD_0" : 2
                    },
                    "indices" : 3,
                    "material" : 0
                },
                {
                    "attributes" : {
                        "POSITION" : 4,
                        "NORMAL" : 5,
                        "TEXCOORD_0" : 6
                    },
                    "indices" : 7,
                    "material" : 1
                },
                {
                    "attributes" : {
                        "POSITION" : 8,
                        "NORMAL" : 9,
                        "TEXCOORD_0" : 10
                    },
                    "indices" : 11,
                    "material" : 2
                }
            ]
        }
    ],
    "accessors" : [
        {
            "bufferView" : 0,
            "componentType" : 5126,
            "count" : 4352,
            "max" : [
                0.8322807550430298,
                -1.1454963684082031,
                0.9828344583511353
            ],
            "min" : [
                -0.8292746543884277,
                -2.221958637237549,
                -0.9500207901000977
            ],
            "type" : "VEC3"
        },
        {
            "bufferView" : 1,
            "componentType" : 5126,
            "count" : 4352,
            "type" : "VEC3"
        },
        {
            "bufferView" : 2,
            "componentType" : 5126,
            "count" : 4352,
            "type" : "VEC2"
        },
        {
            "bufferView" : 3,
            "componentType" : 5123,
            "count" : 6528,
            "type" : "SCALAR"
        },
        {
            "bufferView" : 4,
            "componentType" : 5126,
            "count" : 6155,
            "max" : [
                1.2022936344146729,
                -1.1850128173828125,
                0.8428837060928345
            ],
            "min" : [
                -0.6714932918548584,
                -2.6174120903015137,
                -0.7851737141609192
            ],
            "type" : "VEC3"
        },
        {
            "bufferView" : 5,
            "componentType" : 5126,
            "count" : 6155,
            "type" : "VEC3"
        },
        {
            "bufferView" : 6,
            "componentType" : 5126,
            "count" : 6155,
            "type" : "VEC2"
        },
        {
            "bufferView" : 7,
            "componentType" : 5123,
            "count" : 27648,
            "type" : "SCALAR"
        },
        {
            "bufferView" : 8,
            "componentType" : 5126,
            "count" : 3255,
            "max" : [
                1.229407548904419,
                -1.2741929292678833,
                0.8428837060928345
            ],
            "min" : [
                -0.6537919044494629,
                -2.62274169921875,
                -0.7301938533782959
            ],
            "type" : "VEC3"
        },
        {
            "bufferView" : 9,
            "componentType" : 5126,
            "count" : 3255,
            "type" : "VEC3"
        },
        {
            "bufferView" : 10,
            "componentType" : 5126,
            "count" : 3255,
            "type" : "VEC2"
        },
        {
            "bufferView" : 11,
            "componentType" : 5123,
            "count" : 11121,
            "type" : "SCALAR"
        }
    ],
    "bufferViews" : [
        {
            "buffer" : 0,
            "byteLength" : 52224,
            "byteOffset" : 0
        },
        {
            "buffer" : 0,
            "byteLength" : 52224,
            "byteOffset" : 52224
        },
        {
            "buffer" : 0,
            "byteLength" : 34816,
            "byteOffset" : 104448
        },
        {
            "buffer" : 0,
            "byteLength" : 13056,
            "byteOffset" : 139264
        },
        {
            "buffer" : 0,
            "byteLength" : 73860,
            "byteOffset" : 152320
        },
        {
            "buffer" : 0,
            "byteLength" : 73860,
            "byteOffset" : 226180
        },
        {
            "buffer" : 0,
            "byteLength" : 49240,
            "byteOffset" : 300040
        },
        {
            "buffer" : 0,
            "byteLength" : 55296,
            "byteOffset" : 349280
        },
        {
            "buffer" : 0,
            "byteLength" : 39060,
            "byteOffset" : 404576
        },
        {
            "buffer" : 0,
            "byteLength" : 39060,
            "byteOffset" : 443636
        },
        {
            "buffer" : 0,
            "byteLength" : 26040,
            "byteOffset" : 482696
        },
        {
            "buffer" : 0,
            "byteLength" : 22242,
            "byteOffset" : 508736
        }
    ],
    "buffers" : [
        {
            "byteLength" : 530980,
            "uri" : "data:application/octet-stream;base64,"
        }
    ]
}
