{
    "asset" : {
        "generator" : "Khronos glTF Blender I/O v1.5.17",
        "version" : "2.0"
    },
    "scene" : 0,
    "scenes" : [
        {
            "name" : "Scene",
            "nodes" : [
                0
            ]
        }
    ],
    "nodes" : [
        {
            "mesh" : 0,
            "name" : "Plane",
            "scale" : [
                2.890385866165161,
                2.890385866165161,
                2.890385866165161
            ],
            "translation" : [
                -1.2108047008514404,
                3.30843186378479,
                0
            ]
        }
    ],
    "materials" : [
        {
            "doubleSided" : true,
            "name" : "Material.004",
            "pbrMetallicRoughness" : {
                "baseColorFactor" : [
                    0,
                    0,
                    0,
                    1
                ],
                "metallicFactor" : 0,
                "roughnessFactor" : 0.5
            }
        },
        {
            "doubleSided" : true,
            "name" : "Material.002",
            "pbrMetallicRoughness" : {
                "baseColorFactor" : [
                    0.011485188268125057,
                    0.0637206956744194,
                    0.0019834598060697317,
                    1
                ],
                "metallicFactor" : 0,
                "roughnessFactor" : 0.5
            }
        },
        {
            "doubleSided" : true,
            "name" : "Material.001",
            "pbrMetallicRoughness" : {
                "baseColorFactor" : [
                    0.0871400386095047,
                    0.0871400386095047,
                    0.0871400386095047,
                    1
                ],
                "metallicFactor" : 0,
                "roughnessFactor" : 0.5
            }
        },
        {
            "doubleSided" : true,
            "name" : "Material.003",
            "pbrMetallicRoughness" : {
                "baseColorFactor" : [
                    0.012216866947710514,
                    0.00604334007948637,
                    0.006731485482305288,
                    1
                ],
                "metallicFactor" : 0,
                "roughnessFactor" : 0.5
            }
        }
    ],
    "meshes" : [
        {
            "name" : "Plane",
            "primitives" : [
                {
                    "attributes" : {
                        "POSITION" : 0,
                        "NORMAL" : 1,
                        "TEXCOORD_0" : 2
                    },
                    "indices" : 3,
                    "material" : 0
                },
                {
                    "attributes" : {
                        "POSITION" : 4,
                        "NORMAL" : 5,
                        "TEXCOORD_0" : 6
                    },
                    "indices" : 7,
                    "material" : 1
                },
                {
                    "attributes" : {
                        "POSITION" : 8,
                        "NORMAL" : 9,
                        "TEXCOORD_0" : 10
                    },
                    "indices" : 11,
                    "material" : 2
                },
                {
                    "attributes" : {
                        "POSITION" : 12,
                        "NORMAL" : 13,
                        "TEXCOORD_0" : 14
                    },
                    "indices" : 15,
                    "material" : 3
                }
            ]
        }
    ],
    "accessors" : [
        {
            "bufferView" : 0,
            "componentType" : 5126,
            "count" : 16896,
            "max" : [
                0.9742952585220337,
                -0.46284615993499756,
                0.8398920297622681
            ],
            "min" : [
                -0.8626253604888916,
                -1.2601265907287598,
                -0.8232570886611938
            ],
            "type" : "VEC3"
        },
        {
            "bufferView" : 1,
            "componentType" : 5126,
            "count" : 16896,
            "type" : "VEC3"
        },
        {
            "bufferView" : 2,
            "componentType" : 5126,
            "count" : 16896,
            "type" : "VEC2"
        },
        {
            "bufferView" : 3,
            "componentType" : 5123,
            "count" : 25344,
            "type" : "SCALAR"
        },
        {
            "bufferView" : 4,
            "componentType" : 5126,
            "count" : 358,
            "max" : [
                0.9800375699996948,
                -0.5222872495651245,
                0.41669023036956787
            ],
            "min" : [
                -0.1422223150730133,
                -1.21393883228302,
                -0.41669023036956787
            ],
            "type" : "VEC3"
        },
        {
            "bufferView" : 5,
            "componentType" : 5126,
            "count" : 358,
            "type" : "VEC3"
        },
        {
            "bufferView" : 6,
            "componentType" : 5126,
            "count" : 358,
            "type" : "VEC2"
        },
        {
            "bufferView" : 7,
            "componentType" : 5123,
            "count" : 1716,
            "type" : "SCALAR"
        },
        {
            "bufferView" : 8,
            "componentType" : 5126,
            "count" : 520,
            "max" : [
                0.974929690361023,
                -0.49771949648857117,
                0.43973779678344727
            ],
            "min" : [
                -0.14404842257499695,
                -1.2385051250457764,
                -0.4407496154308319
            ],
            "type" : "VEC3"
        },
        {
            "bufferView" : 9,
            "componentType" : 5126,
            "count" : 520,
            "type" : "VEC3"
        },
        {
            "bufferView" : 10,
            "componentType" : 5126,
            "count" : 520,
            "type" : "VEC2"
        },
        {
            "bufferView" : 11,
            "componentType" : 5123,
            "count" : 1488,
            "type" : "SCALAR"
        },
        {
            "bufferView" : 12,
            "componentType" : 5126,
            "count" : 130,
            "max" : [
                0.9564224481582642,
                -1.077376365661621,
                0.11111649870872498
            ],
            "min" : [
                0.856706976890564,
                -1.1652764081954956,
                0.011457119137048721
            ],
            "type" : "VEC3"
        },
        {
            "bufferView" : 13,
            "componentType" : 5126,
            "count" : 130,
            "type" : "VEC3"
        },
        {
            "bufferView" : 14,
            "componentType" : 5126,
            "count" : 130,
            "type" : "VEC2"
        },
        {
            "bufferView" : 15,
            "componentType" : 5123,
            "count" : 372,
            "type" : "SCALAR"
        }
    ],
    "bufferViews" : [
        {
            "buffer" : 0,
            "byteLength" : 202752,
            "byteOffset" : 0
        },
        {
            "buffer" : 0,
            "byteLength" : 202752,
            "byteOffset" : 202752
        },
        {
            "buffer" : 0,
            "byteLength" : 135168,
            "byteOffset" : 405504
        },
        {
            "buffer" : 0,
            "byteLength" : 50688,
            "byteOffset" : 540672
        },
        {
            "buffer" : 0,
            "byteLength" : 4296,
            "byteOffset" : 591360
        },
        {
            "buffer" : 0,
            "byteLength" : 4296,
            "byteOffset" : 595656
        },
        {
            "buffer" : 0,
            "byteLength" : 2864,
            "byteOffset" : 599952
        },
        {
            "buffer" : 0,
            "byteLength" : 3432,
            "byteOffset" : 602816
        },
        {
            "buffer" : 0,
            "byteLength" : 6240,
            "byteOffset" : 606248
        },
        {
            "buffer" : 0,
            "byteLength" : 6240,
            "byteOffset" : 612488
        },
        {
            "buffer" : 0,
            "byteLength" : 4160,
            "byteOffset" : 618728
        },
        {
            "buffer" : 0,
            "byteLength" : 2976,
            "byteOffset" : 622888
        },
        {
            "buffer" : 0,
            "byteLength" : 1560,
            "byteOffset" : 625864
        },
        {
            "buffer" : 0,
            "byteLength" : 1560,
            "byteOffset" : 627424
        },
        {
            "buffer" : 0,
            "byteLength" : 1040,
            "byteOffset" : 628984
        },
        {
            "buffer" : 0,
            "byteLength" : 744,
            "byteOffset" : 630024
        }
    ],
    "buffers" : [
        {
            "byteLength" : 630768,
            "uri" : "data:application/octet-stream;base64,"
        }
    ]
}
